<svg width="103" height="62" viewBox="0 0 103 62" fill="none" xmlns="http://www.w3.org/2000/svg">
<path d="M0.806452 18L0.983871 17.371C1.55376 17.3495 1.98387 17.3011 2.27419 17.2258C2.56452 17.1505 2.77957 17.0215 2.91935 16.8387C3.05914 16.6452 3.17742 16.3602 3.27419 15.9839L5.35484 8.59677C5.46237 8.20968 5.49462 7.92473 5.45161 7.74194C5.41935 7.54839 5.27957 7.41398 5.03226 7.33871C4.78495 7.26344 4.3871 7.22043 3.83871 7.20968L4.01613 6.58065C4.30645 6.5914 4.66129 6.60215 5.08065 6.6129C5.51075 6.6129 5.97849 6.6129 6.48387 6.6129C6.92473 6.6129 7.32258 6.6129 7.67742 6.6129C8.03226 6.60215 8.33333 6.59677 8.58065 6.59677C8.83871 6.58602 9.02688 6.58065 9.14516 6.58065C10.1882 6.58065 11.0108 6.81183 11.6129 7.27419C12.2151 7.73656 12.5161 8.36022 12.5161 9.14516C12.5161 9.83333 12.2957 10.4462 11.8548 10.9839C11.414 11.5108 10.8011 11.9247 10.0161 12.2258C9.23118 12.5269 8.33333 12.6774 7.32258 12.6774H5.69355L5.85484 12.0968H7.22581C7.95699 12.0968 8.58602 11.9785 9.1129 11.7419C9.63978 11.5054 10.0484 11.172 10.3387 10.7419C10.6398 10.3118 10.7903 9.80645 10.7903 9.22581C10.7903 8.56989 10.6022 8.06989 10.2258 7.72581C9.86022 7.38172 9.3172 7.20968 8.59677 7.20968H7.37097L4.91935 15.9839C4.81183 16.3602 4.77419 16.6452 4.80645 16.8387C4.83871 17.0323 4.97849 17.1667 5.22581 17.2419C5.48387 17.3065 5.8871 17.3495 6.43548 17.371L6.25806 18C5.93548 17.9785 5.53763 17.9677 5.06452 17.9677C4.5914 17.957 4.0914 17.9516 3.56452 17.9516C3.01613 17.9516 2.50538 17.957 2.03226 17.9677C1.55914 17.9677 1.15054 17.9785 0.806452 18ZM10.5806 18.2258C10.129 18.2258 9.76882 18.1022 9.5 17.8548C9.24194 17.5968 9.07527 17.2151 9 16.7097L8.67742 14.7419C8.5914 14.1935 8.48387 13.7742 8.35484 13.4839C8.23656 13.1828 8.04839 12.9731 7.79032 12.8548C7.54301 12.7366 7.1828 12.6774 6.70968 12.6774L6.87097 12.4032C7.64516 12.4032 8.26344 12.4892 8.72581 12.6613C9.19892 12.8333 9.55914 13.1183 9.80645 13.5161C10.0538 13.914 10.2312 14.4677 10.3387 15.1774L10.5161 16.2258C10.5699 16.5806 10.6505 16.8387 10.7581 17C10.8656 17.1505 11.0161 17.2258 11.2097 17.2258C11.4355 17.2258 11.6344 17.1505 11.8065 17C11.9785 16.8387 12.1505 16.5914 12.3226 16.2581L12.7742 15.3871H13.4032L12.7903 16.5645C12.629 16.8763 12.4409 17.1613 12.2258 17.4194C12.0215 17.6667 11.7849 17.8602 11.5161 18C11.2473 18.1505 10.9355 18.2258 10.5806 18.2258ZM19.5892 18.2258C18.7182 18.2258 17.9548 18.0323 17.2989 17.6452C16.643 17.2473 16.1376 16.6935 15.7828 15.9839C15.4387 15.2634 15.2666 14.4194 15.2666 13.4516C15.2666 12.4839 15.4333 11.5753 15.7666 10.7258C16.1 9.87634 16.5623 9.12366 17.1537 8.46774C17.7559 7.81183 18.4387 7.2957 19.2021 6.91935C19.9763 6.54301 20.7935 6.35484 21.6537 6.35484C22.5355 6.35484 23.2989 6.55376 23.9441 6.95161C24.5892 7.33871 25.0838 7.89247 25.4279 8.6129C25.7828 9.32258 25.9602 10.1613 25.9602 11.129C25.9602 12.086 25.7935 12.9946 25.4602 13.8548C25.1268 14.7043 24.6645 15.457 24.0731 16.1129C23.4817 16.7688 22.7989 17.2849 22.0247 17.6613C21.2613 18.0376 20.4494 18.2258 19.5892 18.2258ZM19.6215 17.629C20.2344 17.629 20.815 17.4516 21.3634 17.0968C21.9225 16.7312 22.4172 16.2366 22.8473 15.6129C23.2774 14.9785 23.6107 14.2581 23.8473 13.4516C24.0946 12.6344 24.2182 11.7688 24.2182 10.8548C24.2182 10.0376 24.1161 9.33871 23.9118 8.75806C23.7182 8.17742 23.4279 7.73118 23.0408 7.41936C22.6537 7.10753 22.1752 6.95161 21.6053 6.95161C20.9924 6.95161 20.4064 7.13441 19.8473 7.5C19.2989 7.86559 18.8096 8.36559 18.3795 9C17.9494 9.62366 17.6107 10.3495 17.3634 11.1774C17.1161 11.9946 16.9924 12.8602 16.9924 13.7742C16.9924 14.9892 17.2182 15.9355 17.6699 16.6129C18.1322 17.2903 18.7828 17.629 19.6215 17.629ZM31.6225 18.2258C31.0311 18.2258 30.5257 18.1505 30.1064 18C29.6977 17.8495 29.359 17.6989 29.0902 17.5484C28.8214 17.3978 28.601 17.3226 28.4289 17.3226C28.2999 17.3226 28.1762 17.3763 28.058 17.4839C27.9504 17.5806 27.8322 17.7527 27.7031 18H27.058C27.2515 17.4839 27.4289 16.9301 27.5902 16.3387C27.7623 15.7473 27.9397 15.0269 28.1225 14.1774H28.7676C28.6924 15.2527 28.8967 16.0914 29.3805 16.6935C29.8644 17.2957 30.5795 17.5968 31.5257 17.5968C32.2139 17.5968 32.7515 17.4301 33.1386 17.0968C33.5365 16.7527 33.7354 16.2849 33.7354 15.6935C33.7354 15.2742 33.6332 14.8978 33.4289 14.5645C33.2246 14.2204 32.9612 13.9032 32.6386 13.6129C32.3268 13.3118 31.9934 13.0161 31.6386 12.7258C31.2945 12.4355 30.9612 12.1344 30.6386 11.8226C30.316 11.5 30.0526 11.1452 29.8483 10.7581C29.6547 10.371 29.558 9.93548 29.558 9.45161C29.558 8.84946 29.7031 8.3172 29.9934 7.85484C30.2838 7.39247 30.687 7.02688 31.2031 6.75806C31.7193 6.48925 32.3053 6.35484 32.9612 6.35484C33.4988 6.35484 33.9289 6.43011 34.2515 6.58065C34.5848 6.72043 34.8537 6.86559 35.058 7.01613C35.273 7.16667 35.4612 7.24194 35.6225 7.24194C35.7408 7.24194 35.8483 7.18817 35.9451 7.08064C36.0526 6.97312 36.1601 6.80645 36.2676 6.58065H36.9128C36.7408 6.98925 36.5741 7.46774 36.4128 8.01613C36.2515 8.56452 36.1117 9.16667 35.9934 9.82258H35.3483C35.402 9.23118 35.3429 8.72581 35.1709 8.30645C35.0096 7.87634 34.7461 7.54839 34.3805 7.32258C34.0257 7.08602 33.5902 6.96774 33.0741 6.96774C32.4719 6.96774 31.9881 7.13441 31.6225 7.46774C31.2569 7.80108 31.0741 8.24731 31.0741 8.80645C31.0741 9.21505 31.1762 9.5914 31.3805 9.93548C31.5848 10.2688 31.8483 10.5914 32.1709 10.9032C32.5042 11.2043 32.8537 11.5054 33.2193 11.8065C33.5848 12.0968 33.9289 12.4086 34.2515 12.7419C34.5848 13.0645 34.8537 13.4194 35.058 13.8065C35.2623 14.1935 35.3644 14.629 35.3644 15.1129C35.3644 15.7043 35.2031 16.2366 34.8805 16.7097C34.5687 17.172 34.1279 17.543 33.558 17.8226C32.9988 18.0914 32.3537 18.2258 31.6225 18.2258ZM36.8416 18L37.019 17.371C37.5889 17.3495 38.0137 17.3065 38.2932 17.2419C38.5835 17.1667 38.7986 17.0323 38.9384 16.8387C39.0782 16.6452 39.2018 16.3602 39.3093 15.9839L41.3739 8.59677C41.4814 8.20968 41.5137 7.92473 41.4706 7.74194C41.4384 7.54839 41.2932 7.41398 41.0352 7.33871C40.7878 7.26344 40.3954 7.22043 39.8577 7.20968L40.0352 6.58065C40.433 6.5914 40.9491 6.60215 41.5835 6.6129C42.2287 6.6129 42.9921 6.6129 43.8739 6.6129C44.3685 6.6129 44.8416 6.6129 45.2932 6.6129C45.7448 6.6129 46.1749 6.6129 46.5835 6.6129C47.0029 6.60215 47.3954 6.59677 47.761 6.59677C48.1266 6.59677 48.476 6.5914 48.8093 6.58065C48.6481 7.09677 48.5137 7.61828 48.4061 8.14516C48.2986 8.66129 48.2072 9.22043 48.1319 9.82258H47.4868C47.476 9.15591 47.4115 8.63441 47.2932 8.25806C47.1857 7.88172 46.9921 7.61828 46.7126 7.46774C46.4438 7.3172 46.0674 7.24194 45.5835 7.24194H43.39L40.9384 16C40.7771 16.5591 40.761 16.9247 40.89 17.0968C41.019 17.2581 41.3739 17.3387 41.9545 17.3387H42.3093C43.062 17.3387 43.7018 17.2419 44.2287 17.0484C44.7556 16.8441 45.2287 16.5054 45.6481 16.0323C46.0782 15.5591 46.5137 14.9086 46.9545 14.0806H47.5997C47.2878 14.8656 47.0298 15.5699 46.8255 16.1935C46.6212 16.8172 46.4438 17.4194 46.2932 18C45.9706 17.9892 45.6481 17.9839 45.3255 17.9839C45.0137 17.9731 44.6911 17.9677 44.3577 17.9677C44.0352 17.957 43.6964 17.9516 43.3416 17.9516C42.9975 17.9516 42.6373 17.9516 42.261 17.9516C41.0674 17.9516 40.0137 17.957 39.0997 17.9677C38.1964 17.9677 37.4438 17.9785 36.8416 18ZM41.3739 12.5645L41.5513 11.9516H44.8255L44.6642 12.5645H41.3739ZM44.39 14.5484C44.4545 13.7957 44.3846 13.2796 44.1803 13C43.976 12.7097 43.5782 12.5645 42.9868 12.5645L43.1642 11.9516C43.5728 11.9516 43.9115 11.8925 44.1803 11.7742C44.4599 11.6559 44.7072 11.4516 44.9223 11.1613C45.1373 10.871 45.3577 10.4731 45.5835 9.96774H46.2287C46.1749 10.1183 46.1104 10.3172 46.0352 10.5645C45.9599 10.8118 45.8792 11.086 45.7932 11.3871C45.7072 11.6774 45.6266 11.9677 45.5513 12.2581C45.4975 12.4409 45.4491 12.6183 45.4061 12.7903C45.3739 12.9624 45.3362 13.1398 45.2932 13.3226C45.2502 13.5054 45.2072 13.6989 45.1642 13.9032C45.1212 14.1075 45.0782 14.3226 45.0352 14.5484H44.39ZM48.619 18L48.7964 17.371C49.334 17.3495 49.748 17.2957 50.0383 17.2097C50.3394 17.1129 50.5706 16.9516 50.7319 16.7258C50.9039 16.5 51.0437 16.1828 51.1512 15.7742L53.1512 8.62903C53.2587 8.23118 53.291 7.94086 53.248 7.75806C53.2157 7.56452 53.0706 7.43011 52.8125 7.35484C52.5652 7.26882 52.1727 7.22043 51.6351 7.20968L51.8125 6.58065C52.0383 6.5914 52.3394 6.60215 52.7157 6.6129C53.1028 6.62366 53.5491 6.62903 54.0544 6.62903C54.4415 6.62903 54.791 6.62366 55.1028 6.6129C55.4147 6.60215 55.6727 6.5914 55.877 6.58065L56.6673 16.3226L56.1673 16.371L62.1028 6.58065C62.4254 6.60215 62.7157 6.61828 62.9738 6.62903C63.2426 6.62903 63.5276 6.62903 63.8286 6.62903C64.377 6.62903 64.8716 6.62366 65.3125 6.6129C65.7641 6.60215 66.119 6.5914 66.377 6.58065L66.1996 7.20968C65.6405 7.23118 65.2157 7.27957 64.9254 7.35484C64.6351 7.41936 64.4146 7.54839 64.2641 7.74194C64.1243 7.93548 64.0007 8.23118 63.8931 8.62903L61.8448 15.9516C61.7372 16.3387 61.6996 16.629 61.7319 16.8226C61.7749 17.0161 61.92 17.1505 62.1673 17.2258C62.4254 17.3011 62.8233 17.3495 63.3609 17.371L63.1835 18C62.9147 17.9785 62.5544 17.9677 62.1028 17.9677C61.6512 17.957 61.1351 17.9516 60.5544 17.9516C59.963 17.9516 59.4469 17.957 59.006 17.9677C58.5652 17.9677 58.2211 17.9785 57.9738 18L58.1512 17.371C58.6458 17.3495 59.0222 17.3011 59.2802 17.2258C59.5383 17.1505 59.7319 17.0161 59.8609 16.8226C59.9899 16.6183 60.1082 16.328 60.2157 15.9516L62.619 7.37097H62.3448L55.8286 18.0806H55.2319L54.3609 7.6129H54.0867L51.7964 15.7903C51.6888 16.1989 51.6512 16.5161 51.6835 16.7419C51.7265 16.957 51.8663 17.1129 52.1028 17.2097C52.3501 17.2957 52.7211 17.3495 53.2157 17.371L53.0383 18C52.8233 17.9892 52.5329 17.9785 52.1673 17.9677C51.8017 17.957 51.3931 17.9516 50.9415 17.9516C50.4577 17.9516 50.0114 17.957 49.6028 17.9677C49.205 17.9785 48.877 17.9892 48.619 18ZM64.2927 18L64.4701 17.371C64.8465 17.3495 65.1798 17.2796 65.4701 17.1613C65.7605 17.0323 66.04 16.8333 66.3088 16.5645C66.5884 16.2849 66.8787 15.9247 67.1798 15.4839L73.3734 6.46774H73.954L75.2121 16.0323C75.2658 16.3548 75.3465 16.6183 75.454 16.8226C75.5723 17.0161 75.7497 17.1559 75.9863 17.2419C76.2228 17.3172 76.5293 17.3602 76.9056 17.371L76.7282 18C76.4809 17.9785 76.1422 17.9677 75.7121 17.9677C75.282 17.957 74.7981 17.9516 74.2605 17.9516C73.626 17.9516 73.0777 17.957 72.6153 17.9677C72.1529 17.9677 71.7873 17.9785 71.5185 18L71.6959 17.371C72.2658 17.3602 72.6906 17.3172 72.9701 17.2419C73.2605 17.1667 73.4486 17.0323 73.5347 16.8387C73.6207 16.6452 73.6368 16.371 73.583 16.0161L72.583 8.37097L72.954 8.08065L68.2605 14.9194C67.8626 15.5 67.6207 15.9677 67.5347 16.3226C67.4486 16.6667 67.5293 16.9247 67.7766 17.0968C68.0239 17.2581 68.4486 17.3495 69.0508 17.371L68.8734 18C68.454 17.9785 68.0185 17.9677 67.5669 17.9677C67.1261 17.957 66.6906 17.9516 66.2605 17.9516C65.9379 17.9516 65.6207 17.957 65.3088 17.9677C64.9863 17.9677 64.6476 17.9785 64.2927 18ZM68.7605 13.8548L69.1798 13.2419H73.9701L74.0508 13.8548H68.7605ZM77.7986 18L77.9761 17.371C78.546 17.3495 78.9761 17.3011 79.2664 17.2258C79.5567 17.1505 79.7718 17.0215 79.9115 16.8387C80.0513 16.6452 80.1696 16.3602 80.2664 15.9839L82.347 8.59677C82.4546 8.20968 82.4868 7.92473 82.4438 7.74194C82.4115 7.54839 82.2718 7.41398 82.0244 7.33871C81.7771 7.26344 81.3793 7.22043 80.8309 7.20968L81.0083 6.58065C81.2986 6.5914 81.6535 6.60215 82.0728 6.6129C82.5029 6.6129 82.9707 6.6129 83.4761 6.6129C83.9169 6.6129 84.3148 6.6129 84.6696 6.6129C85.0244 6.60215 85.3255 6.59677 85.5728 6.59677C85.8309 6.58602 86.0191 6.58065 86.1373 6.58065C87.1804 6.58065 88.0029 6.81183 88.6051 7.27419C89.2072 7.73656 89.5083 8.36022 89.5083 9.14516C89.5083 9.83333 89.2879 10.4462 88.847 10.9839C88.4062 11.5108 87.7933 11.9247 87.0083 12.2258C86.2234 12.5269 85.3255 12.6774 84.3148 12.6774H82.6857L82.847 12.0968H84.218C84.9492 12.0968 85.5782 11.9785 86.1051 11.7419C86.632 11.5054 87.0406 11.172 87.3309 10.7419C87.632 10.3118 87.7825 9.80645 87.7825 9.22581C87.7825 8.56989 87.5943 8.06989 87.218 7.72581C86.8524 7.38172 86.3094 7.20968 85.589 7.20968H84.3632L81.9115 15.9839C81.804 16.3602 81.7664 16.6452 81.7986 16.8387C81.8309 17.0323 81.9707 17.1667 82.218 17.2419C82.4761 17.3065 82.8793 17.3495 83.4277 17.371L83.2503 18C82.9277 17.9785 82.5298 17.9677 82.0567 17.9677C81.5836 17.957 81.0836 17.9516 80.5567 17.9516C80.0083 17.9516 79.4976 17.957 79.0244 17.9677C78.5513 17.9677 78.1427 17.9785 77.7986 18ZM87.5728 18.2258C87.1212 18.2258 86.761 18.1022 86.4922 17.8548C86.2341 17.5968 86.0675 17.2151 85.9922 16.7097L85.6696 14.7419C85.5836 14.1935 85.4761 13.7742 85.347 13.4839C85.2287 13.1828 85.0406 12.9731 84.7825 12.8548C84.5352 12.7366 84.175 12.6774 83.7019 12.6774L83.8632 12.4032C84.6373 12.4032 85.2556 12.4892 85.718 12.6613C86.1911 12.8333 86.5513 13.1183 86.7986 13.5161C87.046 13.914 87.2234 14.4677 87.3309 15.1774L87.5083 16.2258C87.5621 16.5806 87.6427 16.8387 87.7503 17C87.8578 17.1505 88.0083 17.2258 88.2019 17.2258C88.4277 17.2258 88.6266 17.1505 88.7986 17C88.9707 16.8387 89.1427 16.5914 89.3148 16.2581L89.7664 15.3871H90.3954L89.7825 16.5645C89.6212 16.8763 89.433 17.1613 89.218 17.4194C89.0137 17.6667 88.7771 17.8602 88.5083 18C88.2395 18.1505 87.9277 18.2258 87.5728 18.2258ZM92.1408 18L92.302 17.371C92.8504 17.3387 93.2752 17.2849 93.5762 17.2097C93.8773 17.1237 94.1031 16.9785 94.2537 16.7742C94.4042 16.5699 94.5278 16.2796 94.6246 15.9032L94.8988 14.9032C95.1461 14.0215 95.2967 13.1398 95.3504 12.2581C95.4149 11.3656 95.3934 10.5538 95.2859 9.82258C95.1891 9.08065 95.0171 8.48925 94.7698 8.04839C94.5225 7.59677 94.216 7.37097 93.8504 7.37097C93.6569 7.37097 93.4741 7.44086 93.302 7.58065C93.13 7.72043 92.9472 7.97312 92.7537 8.33871L92.302 9.19355H91.6891L92.2859 8.01613C92.458 7.69355 92.6461 7.4086 92.8504 7.16129C93.0655 6.91398 93.3074 6.72043 93.5762 6.58065C93.8558 6.43011 94.173 6.35484 94.5278 6.35484C95.5171 6.35484 96.2106 6.99462 96.6085 8.27419C97.0063 9.54301 97.0601 11.328 96.7698 13.629L96.4472 13.7581C96.7913 12.5968 97.1569 11.5591 97.544 10.6452C97.9418 9.73118 98.3504 8.95699 98.7698 8.32258C99.1891 7.67742 99.6085 7.18817 100.028 6.85484C100.458 6.52151 100.883 6.35484 101.302 6.35484C101.582 6.35484 101.802 6.42473 101.963 6.56452C102.125 6.7043 102.205 6.89247 102.205 7.12903C102.205 7.4086 102.119 7.61828 101.947 7.75806C101.775 7.8871 101.544 7.99462 101.254 8.08065C100.963 8.16667 100.641 8.27957 100.286 8.41936C99.9311 8.54839 99.5816 8.75806 99.2375 9.04839C98.8934 9.32796 98.5709 9.74194 98.2698 10.2903C98.1085 10.6022 97.9311 10.9785 97.7375 11.4194C97.5547 11.8495 97.3773 12.2957 97.2053 12.7581C97.0332 13.2097 96.8934 13.6183 96.7859 13.9839L96.2537 15.9032C96.1461 16.3011 96.1139 16.6022 96.1569 16.8065C96.1999 17.0108 96.3558 17.1559 96.6246 17.2419C96.8934 17.3172 97.3182 17.3602 97.8988 17.371L97.7375 18C97.4472 17.9785 97.0655 17.9677 96.5924 17.9677C96.13 17.957 95.5762 17.9516 94.9311 17.9516C94.2752 17.9516 93.7053 17.957 93.2214 17.9677C92.7483 17.9677 92.3881 17.9785 92.1408 18Z" fill="#3988A4"/>
<path d="M48.1452 37.2258C47.0484 37.2258 46.1022 37.0538 45.3065 36.7097C44.5108 36.3548 43.8925 35.8495 43.4516 35.1935C43.0215 34.5376 42.8065 33.7688 42.8065 32.8871C42.8065 32.0591 42.9839 31.3118 43.3387 30.6452C43.6935 29.9785 44.172 29.4516 44.7742 29.0645C45.3763 28.6774 46.043 28.4839 46.7742 28.4839C47.3656 28.4839 47.8333 28.6075 48.1774 28.8548C48.5215 29.1022 48.6935 29.4409 48.6935 29.871C48.6935 30.2151 48.5538 30.5753 48.2742 30.9516C47.9946 31.3172 47.5484 31.7366 46.9355 32.2097L46.7258 32.1613C47.457 31.7849 48.1183 31.4086 48.7097 31.0323C49.3011 30.6452 49.8065 30.2742 50.2258 29.9194C50.6452 29.5538 50.9677 29.2151 51.1935 28.9032C51.4194 28.5914 51.5323 28.3118 51.5323 28.0645C51.5323 27.8387 51.4677 27.6398 51.3387 27.4677C51.2097 27.2849 51.0806 27.1075 50.9516 26.9355C50.8333 26.7527 50.7742 26.5538 50.7742 26.3387C50.7742 26.0914 50.8602 25.8925 51.0323 25.7419C51.2043 25.5914 51.4247 25.5161 51.6935 25.5161C52.0484 25.5161 52.3333 25.6398 52.5484 25.8871C52.7742 26.1344 52.8871 26.457 52.8871 26.8548C52.8871 27.3387 52.7097 27.8548 52.3548 28.4032C52.0108 28.9516 51.5161 29.5108 50.871 30.0806C50.2258 30.6398 49.4624 31.1882 48.5806 31.7258C47.7097 32.2634 46.7473 32.7581 45.6935 33.2097L45.4516 32.629C46.0753 32.3602 46.5591 32 46.9032 31.5484C47.2581 31.0968 47.4355 30.6075 47.4355 30.0806C47.4355 29.7473 47.3656 29.5 47.2258 29.3387C47.086 29.1667 46.8763 29.0806 46.5968 29.0806C46.1989 29.0806 45.828 29.2419 45.4839 29.5645C45.1398 29.8871 44.8656 30.3118 44.6613 30.8387C44.457 31.3656 44.3548 31.9409 44.3548 32.5645C44.3548 33.7043 44.7419 34.6075 45.5161 35.2742C46.3011 35.9301 47.371 36.2581 48.7258 36.2581C50.1774 36.2581 51.3978 35.8602 52.3871 35.0645C53.3871 34.2688 54.1559 33.0806 54.6935 31.5L55.2742 31.6129C54.6613 33.4731 53.7581 34.8763 52.5645 35.8226C51.371 36.7581 49.8978 37.2258 48.1452 37.2258ZM51.2097 34.4677C50.8978 34.4677 50.6452 34.3495 50.4516 34.1129C50.2688 33.8763 50.1774 33.5538 50.1774 33.1452C50.1774 32.7473 50.2581 32.3871 50.4194 32.0645C50.5914 31.7312 50.828 31.4409 51.129 31.1935C51.4409 30.9462 51.8011 30.7581 52.2097 30.629C52.629 30.4892 53.086 30.4194 53.5806 30.4194C54 30.4194 54.3978 30.4731 54.7742 30.5806C55.1505 30.6774 55.5054 30.7957 55.8387 30.9355C56.172 31.0753 56.4785 31.1989 56.7581 31.3065C57.0376 31.414 57.2957 31.4677 57.5323 31.4677C57.8011 31.4677 58.0054 31.4032 58.1452 31.2742C58.2849 31.1344 58.3925 30.9677 58.4677 30.7742C58.5538 30.5806 58.629 30.3871 58.6935 30.1935C58.7688 30 58.8656 29.8387 58.9839 29.7097C59.1022 29.5699 59.2849 29.5 59.5323 29.5C59.7796 29.5 59.9731 29.5806 60.1129 29.7419C60.2634 29.8925 60.3387 30.1075 60.3387 30.3871C60.3387 30.8925 60.0914 31.3011 59.5968 31.6129C59.1129 31.914 58.4624 32.0645 57.6452 32.0645C57.2796 32.0645 56.9247 32.0376 56.5806 31.9839C56.2366 31.9301 55.8817 31.871 55.5161 31.8065C55.1613 31.7419 54.7849 31.6828 54.3871 31.629C53.9892 31.5753 53.5645 31.5484 53.1129 31.5484C52.5215 31.5484 52.0699 31.6022 51.7581 31.7097C51.4462 31.8172 51.2903 31.9731 51.2903 32.1774C51.2903 32.2957 51.328 32.414 51.4032 32.5323C51.4892 32.6398 51.586 32.7527 51.6935 32.871C51.8011 32.9892 51.8925 33.1183 51.9677 33.2581C52.0538 33.3871 52.0968 33.5323 52.0968 33.6935C52.0968 33.9086 52.0161 34.0914 51.8548 34.2419C51.6935 34.3925 51.4785 34.4677 51.2097 34.4677Z" fill="#3988A4"/>
<path d="M17.4194 56L17.5968 55.371C18.2527 55.3495 18.7473 55.3065 19.0806 55.2419C19.414 55.1667 19.6613 55.0323 19.8226 54.8387C19.9839 54.6452 20.1183 54.3602 20.2258 53.9839L22.6935 45.129L24.2258 45.4839L21.8548 53.9839C21.7473 54.3602 21.7204 54.6452 21.7742 54.8387C21.8387 55.0323 22.0376 55.1667 22.371 55.2419C22.7043 55.3065 23.2312 55.3495 23.9516 55.371L23.7742 56C23.3656 55.9785 22.871 55.9677 22.2903 55.9677C21.7204 55.957 21.1183 55.9516 20.4839 55.9516C19.9355 55.9516 19.3871 55.957 18.8387 55.9677C18.3011 55.9677 17.828 55.9785 17.4194 56ZM18.3871 48.7258C18.0753 48.7258 17.8226 48.6075 17.629 48.371C17.4462 48.1237 17.3548 47.7742 17.3548 47.3226C17.3548 46.7419 17.5054 46.2258 17.8065 45.7742C18.1075 45.3226 18.5269 44.9731 19.0645 44.7258C19.6022 44.4785 20.2258 44.3548 20.9355 44.3548C21.4194 44.3548 21.914 44.414 22.4194 44.5323C22.9247 44.6398 23.414 44.7688 23.8871 44.9194C24.371 45.0699 24.8118 45.2043 25.2097 45.3226C25.6183 45.4409 25.9516 45.5 26.2097 45.5C26.5 45.5 26.7151 45.4355 26.8548 45.3065C27.0054 45.1667 27.1129 45 27.1774 44.8065C27.2527 44.6129 27.3226 44.4194 27.3871 44.2258C27.4516 44.0323 27.543 43.871 27.6613 43.7419C27.7796 43.6129 27.9624 43.5484 28.2097 43.5484C28.4677 43.5484 28.6667 43.629 28.8065 43.7903C28.957 43.9409 29.0323 44.1505 29.0323 44.4194C29.0323 44.9355 28.7849 45.3441 28.2903 45.6452C27.7957 45.9462 27.1183 46.0968 26.2581 46.0968C25.8602 46.0968 25.4194 46.0645 24.9355 46C24.4516 45.9355 23.9462 45.8602 23.4194 45.7742C22.9032 45.6774 22.3871 45.5968 21.871 45.5323C21.3656 45.457 20.8871 45.4194 20.4355 45.4194C19.8011 45.4194 19.3118 45.5 18.9677 45.6613C18.6237 45.8118 18.4516 46.0269 18.4516 46.3065C18.4516 46.457 18.4892 46.5968 18.5645 46.7258C18.6505 46.8441 18.7473 46.9677 18.8548 47.0968C18.9624 47.2258 19.0538 47.3602 19.129 47.5C19.2043 47.6398 19.2419 47.7849 19.2419 47.9355C19.2419 48.172 19.1613 48.3656 19 48.5161C18.8495 48.6559 18.6452 48.7258 18.3871 48.7258ZM34.779 56L34.9564 55.371C35.4833 55.3495 35.8758 55.2957 36.1338 55.2097C36.4026 55.1237 36.5908 54.9892 36.6983 54.8065C36.8166 54.6129 36.9241 54.3387 37.0209 53.9839L39.0854 46.5968C39.193 46.2097 39.2306 45.9247 39.1983 45.7419C39.1768 45.5484 39.0532 45.414 38.8274 45.3387C38.6123 45.2634 38.2682 45.2204 37.7951 45.2097L37.9725 44.5806C38.2306 44.5914 38.5693 44.6022 38.9887 44.6129C39.4188 44.6237 39.8973 44.629 40.4241 44.629C40.994 44.629 41.5155 44.6237 41.9887 44.6129C42.4725 44.6022 42.8704 44.5914 43.1822 44.5806L43.0048 45.2097C42.4456 45.2312 42.0155 45.2796 41.7145 45.3548C41.4241 45.4301 41.2091 45.5591 41.0693 45.7419C40.9403 45.9247 40.822 46.2097 40.7145 46.5968L38.6499 53.9839C38.5424 54.3602 38.5048 54.6452 38.537 54.8387C38.5801 55.0323 38.7252 55.1667 38.9725 55.2419C39.2306 55.3065 39.6284 55.3495 40.1661 55.371L39.9887 56C39.6983 55.9785 39.3166 55.9677 38.8435 55.9677C38.3811 55.957 37.8704 55.9516 37.3112 55.9516C36.7736 55.9516 36.2844 55.957 35.8435 55.9677C35.4134 55.9677 35.0586 55.9785 34.779 56ZM27.408 56L27.5854 55.371C28.1553 55.3495 28.5854 55.3011 28.8758 55.2258C29.1661 55.1505 29.3811 55.0215 29.5209 54.8387C29.6607 54.6452 29.779 54.3602 29.8758 53.9839L31.9403 46.5968C32.0478 46.2097 32.0854 45.9247 32.0532 45.7419C32.0209 45.5591 31.8758 45.4301 31.6177 45.3548C31.3704 45.2688 30.9725 45.2204 30.4241 45.2097L30.6016 44.5806C30.8919 44.5914 31.2682 44.6022 31.7306 44.6129C32.193 44.6237 32.7091 44.629 33.279 44.629C33.8059 44.629 34.2897 44.6237 34.7306 44.6129C35.1715 44.6022 35.5317 44.5914 35.8112 44.5806L35.6338 45.2097C35.1069 45.2312 34.7145 45.2849 34.4564 45.371C34.1983 45.4462 34.0102 45.5806 33.8919 45.7742C33.7844 45.957 33.6768 46.2312 33.5693 46.5968L31.5209 53.9839C31.4134 54.3602 31.3704 54.6452 31.3919 54.8387C31.4241 55.0323 31.5478 55.1667 31.7629 55.2419C31.9887 55.3065 32.3327 55.3495 32.7951 55.371L32.6177 56C32.3596 55.9785 32.0155 55.9677 31.5854 55.9677C31.1553 55.957 30.6822 55.9516 30.1661 55.9516C29.5854 55.9516 29.0532 55.957 28.5693 55.9677C28.0962 55.9677 27.7091 55.9785 27.408 56ZM32.0693 50.5645L32.2467 49.9516H38.4564L38.2629 50.5645H32.0693ZM43.9962 56L44.1575 55.371C44.7059 55.3387 45.1306 55.2849 45.4317 55.2097C45.7328 55.1237 45.9586 54.9785 46.1091 54.7742C46.2597 54.5699 46.3833 54.2796 46.4801 53.9032L46.7543 52.9032C47.0016 52.0215 47.1521 51.1398 47.2059 50.2581C47.2704 49.3656 47.2489 48.5538 47.1414 47.8226C47.0446 47.0806 46.8726 46.4892 46.6253 46.0484C46.3779 45.5968 46.0715 45.371 45.7059 45.371C45.5123 45.371 45.3296 45.4409 45.1575 45.5806C44.9855 45.7204 44.8027 45.9731 44.6091 46.3387L44.1575 47.1935H43.5446L44.1414 46.0161C44.3134 45.6935 44.5016 45.4086 44.7059 45.1613C44.921 44.914 45.1629 44.7204 45.4317 44.5806C45.7113 44.4301 46.0285 44.3548 46.3833 44.3548C47.3726 44.3548 48.0661 44.9946 48.464 46.2742C48.8618 47.543 48.9156 49.328 48.6253 51.629L48.3027 51.7581C48.6468 50.5968 49.0123 49.5591 49.3994 48.6452C49.7973 47.7312 50.2059 46.957 50.6253 46.3226C51.0446 45.6774 51.464 45.1882 51.8833 44.8548C52.3134 44.5215 52.7382 44.3548 53.1575 44.3548C53.4371 44.3548 53.6575 44.4247 53.8188 44.5645C53.9801 44.7043 54.0607 44.8925 54.0607 45.129C54.0607 45.4086 53.9747 45.6183 53.8027 45.7581C53.6306 45.8871 53.3994 45.9946 53.1091 46.0806C52.8188 46.1667 52.4962 46.2796 52.1414 46.4194C51.7865 46.5484 51.4371 46.7581 51.093 47.0484C50.7489 47.328 50.4263 47.7419 50.1253 48.2903C49.964 48.6022 49.7865 48.9785 49.593 49.4194C49.4102 49.8495 49.2328 50.2957 49.0607 50.7581C48.8887 51.2097 48.7489 51.6183 48.6414 51.9839L48.1091 53.9032C48.0016 54.3011 47.9693 54.6022 48.0123 54.8065C48.0554 55.0108 48.2113 55.1559 48.4801 55.2419C48.7489 55.3172 49.1736 55.3602 49.7543 55.371L49.593 56C49.3027 55.9785 48.921 55.9677 48.4478 55.9677C47.9855 55.957 47.4317 55.9516 46.7865 55.9516C46.1306 55.9516 45.5607 55.957 45.0769 55.9677C44.6037 55.9677 44.2435 55.9785 43.9962 56ZM52.6033 56L52.7807 55.371C53.3184 55.3495 53.7324 55.2957 54.0227 55.2097C54.3238 55.1129 54.5549 54.9516 54.7162 54.7258C54.8883 54.5 55.0281 54.1828 55.1356 53.7742L57.1356 46.629C57.2431 46.2312 57.2754 45.9409 57.2324 45.7581C57.2001 45.5645 57.0549 45.4301 56.7969 45.3548C56.5496 45.2688 56.1571 45.2204 55.6195 45.2097L55.7969 44.5806C56.0227 44.5914 56.3238 44.6022 56.7001 44.6129C57.0872 44.6237 57.5334 44.629 58.0388 44.629C58.4259 44.629 58.7754 44.6237 59.0872 44.6129C59.399 44.6022 59.6571 44.5914 59.8614 44.5806L60.6517 54.3226L60.1517 54.371L66.0872 44.5806C66.4098 44.6022 66.7001 44.6183 66.9582 44.629C67.227 44.629 67.5119 44.629 67.813 44.629C68.3614 44.629 68.856 44.6237 69.2969 44.6129C69.7485 44.6022 70.1033 44.5914 70.3614 44.5806L70.184 45.2097C69.6248 45.2312 69.2001 45.2796 68.9098 45.3548C68.6195 45.4194 68.399 45.5484 68.2485 45.7419C68.1087 45.9355 67.985 46.2312 67.8775 46.629L65.8291 53.9516C65.7216 54.3387 65.684 54.629 65.7162 54.8226C65.7592 55.0161 65.9044 55.1505 66.1517 55.2258C66.4098 55.3011 66.8076 55.3495 67.3453 55.371L67.1678 56C66.899 55.9785 66.5388 55.9677 66.0872 55.9677C65.6356 55.957 65.1195 55.9516 64.5388 55.9516C63.9474 55.9516 63.4313 55.957 62.9904 55.9677C62.5496 55.9677 62.2055 55.9785 61.9582 56L62.1356 55.371C62.6302 55.3495 63.0066 55.3011 63.2646 55.2258C63.5227 55.1505 63.7162 55.0161 63.8453 54.8226C63.9743 54.6183 64.0926 54.328 64.2001 53.9516L66.6033 45.371H66.3291L59.813 56.0806H59.2162L58.3453 45.6129H58.0711L55.7807 53.7903C55.6732 54.1989 55.6356 54.5161 55.6678 54.7419C55.7109 54.957 55.8506 55.1129 56.0872 55.2097C56.3345 55.2957 56.7055 55.3495 57.2001 55.371L57.0227 56C56.8076 55.9892 56.5173 55.9785 56.1517 55.9677C55.7861 55.957 55.3775 55.9516 54.9259 55.9516C54.442 55.9516 53.9958 55.957 53.5872 55.9677C53.1893 55.9785 52.8614 55.9892 52.6033 56ZM69.1854 56L69.3628 55.371C69.9327 55.3495 70.3574 55.3065 70.637 55.2419C70.9273 55.1667 71.1423 55.0323 71.2821 54.8387C71.4219 54.6452 71.5456 54.3602 71.6531 53.9839L73.7176 46.5968C73.8251 46.2097 73.8574 45.9247 73.8144 45.7419C73.7821 45.5484 73.637 45.414 73.3789 45.3387C73.1316 45.2634 72.7391 45.2204 72.2015 45.2097L72.3789 44.5806C72.7768 44.5914 73.2929 44.6022 73.9273 44.6129C74.5725 44.6129 75.3359 44.6129 76.2176 44.6129C76.7122 44.6129 77.1854 44.6129 77.637 44.6129C78.0886 44.6129 78.5187 44.6129 78.9273 44.6129C79.3466 44.6022 79.7391 44.5968 80.1047 44.5968C80.4703 44.5968 80.8198 44.5914 81.1531 44.5806C80.9918 45.0968 80.8574 45.6183 80.7499 46.1452C80.6423 46.6613 80.5509 47.2204 80.4757 47.8226H79.8305C79.8198 47.1559 79.7552 46.6344 79.637 46.2581C79.5294 45.8817 79.3359 45.6183 79.0563 45.4677C78.7875 45.3172 78.4112 45.2419 77.9273 45.2419H75.7337L73.2821 54C73.1208 54.5591 73.1047 54.9247 73.2337 55.0968C73.3628 55.2581 73.7176 55.3387 74.2983 55.3387H74.6531C75.4058 55.3387 76.0456 55.2419 76.5725 55.0484C77.0993 54.8441 77.5725 54.5054 77.9918 54.0323C78.4219 53.5591 78.8574 52.9086 79.2983 52.0806H79.9434C79.6316 52.8656 79.3735 53.5699 79.1692 54.1935C78.9649 54.8172 78.7875 55.4194 78.637 56C78.3144 55.9892 77.9918 55.9839 77.6692 55.9839C77.3574 55.9731 77.0348 55.9677 76.7015 55.9677C76.3789 55.957 76.0402 55.9516 75.6854 55.9516C75.3413 55.9516 74.9811 55.9516 74.6047 55.9516C73.4112 55.9516 72.3574 55.957 71.4434 55.9677C70.5402 55.9677 69.7875 55.9785 69.1854 56ZM73.7176 50.5645L73.895 49.9516H77.1692L77.0079 50.5645H73.7176ZM76.7337 52.5484C76.7983 51.7957 76.7284 51.2796 76.5241 51C76.3198 50.7097 75.9219 50.5645 75.3305 50.5645L75.5079 49.9516C75.9165 49.9516 76.2553 49.8925 76.5241 49.7742C76.8036 49.6559 77.0509 49.4516 77.266 49.1613C77.4811 48.871 77.7015 48.4731 77.9273 47.9677H78.5725C78.5187 48.1183 78.4542 48.3172 78.3789 48.5645C78.3036 48.8118 78.223 49.086 78.137 49.3871C78.0509 49.6774 77.9703 49.9677 77.895 50.2581C77.8413 50.4409 77.7929 50.6183 77.7499 50.7903C77.7176 50.9624 77.68 51.1398 77.637 51.3226C77.594 51.5054 77.5509 51.6989 77.5079 51.9032C77.4649 52.1075 77.4219 52.3226 77.3789 52.5484H76.7337Z" fill="#3988A4"/>
</svg>
