<svg width="194" height="14" viewBox="0 0 194 14" fill="none" xmlns="http://www.w3.org/2000/svg">
<path d="M0.806452 13L0.983871 12.371C1.55376 12.3495 1.98387 12.3011 2.27419 12.2258C2.56452 12.1505 2.77957 12.0215 2.91935 11.8387C3.05914 11.6452 3.17742 11.3602 3.27419 10.9839L5.35484 3.59677C5.46237 3.20968 5.49462 2.92473 5.45161 2.74194C5.41935 2.54839 5.27957 2.41398 5.03226 2.33871C4.78495 2.26344 4.3871 2.22043 3.83871 2.20968L4.01613 1.58065C4.30645 1.5914 4.66129 1.60215 5.08065 1.6129C5.51075 1.6129 5.97849 1.6129 6.48387 1.6129C6.92473 1.6129 7.32258 1.6129 7.67742 1.6129C8.03226 1.60215 8.33333 1.59677 8.58065 1.59677C8.83871 1.58602 9.02688 1.58065 9.14516 1.58065C10.1882 1.58065 11.0108 1.81183 11.6129 2.27419C12.2151 2.73656 12.5161 3.36022 12.5161 4.14516C12.5161 4.83333 12.2957 5.44624 11.8548 5.98387C11.414 6.51075 10.8011 6.92473 10.0161 7.22581C9.23118 7.52688 8.33333 7.67742 7.32258 7.67742H5.69355L5.85484 7.09677H7.22581C7.95699 7.09677 8.58602 6.97849 9.1129 6.74194C9.63978 6.50538 10.0484 6.17204 10.3387 5.74194C10.6398 5.31183 10.7903 4.80645 10.7903 4.22581C10.7903 3.56989 10.6022 3.06989 10.2258 2.72581C9.86022 2.38172 9.3172 2.20968 8.59677 2.20968H7.37097L4.91935 10.9839C4.81183 11.3602 4.77419 11.6452 4.80645 11.8387C4.83871 12.0323 4.97849 12.1667 5.22581 12.2419C5.48387 12.3065 5.8871 12.3495 6.43548 12.371L6.25806 13C5.93548 12.9785 5.53763 12.9677 5.06452 12.9677C4.5914 12.957 4.0914 12.9516 3.56452 12.9516C3.01613 12.9516 2.50538 12.957 2.03226 12.9677C1.55914 12.9677 1.15054 12.9785 0.806452 13ZM10.5806 13.2258C10.129 13.2258 9.76882 13.1022 9.5 12.8548C9.24194 12.5968 9.07527 12.2151 9 11.7097L8.67742 9.74194C8.5914 9.19355 8.48387 8.77419 8.35484 8.48387C8.23656 8.1828 8.04839 7.97312 7.79032 7.85484C7.54301 7.73656 7.1828 7.67742 6.70968 7.67742L6.87097 7.40323C7.64516 7.40323 8.26344 7.48925 8.72581 7.66129C9.19892 7.83333 9.55914 8.11828 9.80645 8.51613C10.0538 8.91398 10.2312 9.46774 10.3387 10.1774L10.5161 11.2258C10.5699 11.5806 10.6505 11.8387 10.7581 12C10.8656 12.1505 11.0161 12.2258 11.2097 12.2258C11.4355 12.2258 11.6344 12.1505 11.8065 12C11.9785 11.8387 12.1505 11.5914 12.3226 11.2581L12.7742 10.3871H13.4032L12.7903 11.5645C12.629 11.8763 12.4409 12.1613 12.2258 12.4194C12.0215 12.6667 11.7849 12.8602 11.5161 13C11.2473 13.1505 10.9355 13.2258 10.5806 13.2258ZM19.5892 13.2258C18.7182 13.2258 17.9548 13.0323 17.2989 12.6452C16.643 12.2473 16.1376 11.6935 15.7828 10.9839C15.4387 10.2634 15.2666 9.41935 15.2666 8.45161C15.2666 7.48387 15.4333 6.57527 15.7666 5.72581C16.1 4.87634 16.5623 4.12366 17.1537 3.46774C17.7559 2.81183 18.4387 2.2957 19.2021 1.91935C19.9763 1.54301 20.7935 1.35484 21.6537 1.35484C22.5355 1.35484 23.2989 1.55376 23.9441 1.95161C24.5892 2.33871 25.0838 2.89247 25.4279 3.6129C25.7828 4.32258 25.9602 5.16129 25.9602 6.12903C25.9602 7.08602 25.7935 7.99462 25.4602 8.85484C25.1268 9.7043 24.6645 10.457 24.0731 11.1129C23.4817 11.7688 22.7989 12.2849 22.0247 12.6613C21.2613 13.0376 20.4494 13.2258 19.5892 13.2258ZM19.6215 12.629C20.2344 12.629 20.815 12.4516 21.3634 12.0968C21.9225 11.7312 22.4172 11.2366 22.8473 10.6129C23.2774 9.97849 23.6107 9.25806 23.8473 8.45161C24.0946 7.63441 24.2182 6.76882 24.2182 5.85484C24.2182 5.03763 24.1161 4.33871 23.9118 3.75806C23.7182 3.17742 23.4279 2.73118 23.0408 2.41936C22.6537 2.10753 22.1752 1.95161 21.6053 1.95161C20.9924 1.95161 20.4064 2.13441 19.8473 2.5C19.2989 2.86559 18.8096 3.36559 18.3795 4C17.9494 4.62366 17.6107 5.34946 17.3634 6.17742C17.1161 6.99462 16.9924 7.86022 16.9924 8.77419C16.9924 9.98925 17.2182 10.9355 17.6699 11.6129C18.1322 12.2903 18.7828 12.629 19.6215 12.629ZM31.6225 13.2258C31.0311 13.2258 30.5257 13.1505 30.1064 13C29.6977 12.8495 29.359 12.6989 29.0902 12.5484C28.8214 12.3978 28.601 12.3226 28.4289 12.3226C28.2999 12.3226 28.1762 12.3763 28.058 12.4839C27.9504 12.5806 27.8322 12.7527 27.7031 13H27.058C27.2515 12.4839 27.4289 11.9301 27.5902 11.3387C27.7623 10.7473 27.9397 10.0269 28.1225 9.17742H28.7676C28.6924 10.2527 28.8967 11.0914 29.3805 11.6935C29.8644 12.2957 30.5795 12.5968 31.5257 12.5968C32.2139 12.5968 32.7515 12.4301 33.1386 12.0968C33.5365 11.7527 33.7354 11.2849 33.7354 10.6935C33.7354 10.2742 33.6332 9.89785 33.4289 9.56452C33.2246 9.22043 32.9612 8.90323 32.6386 8.6129C32.3268 8.31183 31.9934 8.01613 31.6386 7.72581C31.2945 7.43548 30.9612 7.13441 30.6386 6.82258C30.316 6.5 30.0526 6.14516 29.8483 5.75806C29.6547 5.37097 29.558 4.93548 29.558 4.45161C29.558 3.84946 29.7031 3.3172 29.9934 2.85484C30.2838 2.39247 30.687 2.02688 31.2031 1.75806C31.7193 1.48925 32.3053 1.35484 32.9612 1.35484C33.4988 1.35484 33.9289 1.43011 34.2515 1.58065C34.5848 1.72043 34.8537 1.86559 35.058 2.01613C35.273 2.16667 35.4612 2.24194 35.6225 2.24194C35.7408 2.24194 35.8483 2.18817 35.9451 2.08064C36.0526 1.97312 36.1601 1.80645 36.2676 1.58065H36.9128C36.7408 1.98925 36.5741 2.46774 36.4128 3.01613C36.2515 3.56452 36.1117 4.16667 35.9934 4.82258H35.3483C35.402 4.23118 35.3429 3.72581 35.1709 3.30645C35.0096 2.87634 34.7461 2.54839 34.3805 2.32258C34.0257 2.08602 33.5902 1.96774 33.0741 1.96774C32.4719 1.96774 31.9881 2.13441 31.6225 2.46774C31.2569 2.80108 31.0741 3.24731 31.0741 3.80645C31.0741 4.21505 31.1762 4.5914 31.3805 4.93548C31.5848 5.26882 31.8483 5.5914 32.1709 5.90323C32.5042 6.2043 32.8537 6.50538 33.2193 6.80645C33.5848 7.09677 33.9289 7.4086 34.2515 7.74194C34.5848 8.06452 34.8537 8.41935 35.058 8.80645C35.2623 9.19355 35.3644 9.62903 35.3644 10.1129C35.3644 10.7043 35.2031 11.2366 34.8805 11.7097C34.5687 12.172 34.1279 12.543 33.558 12.8226C32.9988 13.0914 32.3537 13.2258 31.6225 13.2258ZM36.8416 13L37.019 12.371C37.5889 12.3495 38.0137 12.3065 38.2932 12.2419C38.5835 12.1667 38.7986 12.0323 38.9384 11.8387C39.0782 11.6452 39.2018 11.3602 39.3093 10.9839L41.3739 3.59677C41.4814 3.20968 41.5137 2.92473 41.4706 2.74194C41.4384 2.54839 41.2932 2.41398 41.0352 2.33871C40.7878 2.26344 40.3954 2.22043 39.8577 2.20968L40.0352 1.58065C40.433 1.5914 40.9491 1.60215 41.5835 1.6129C42.2287 1.6129 42.9921 1.6129 43.8739 1.6129C44.3685 1.6129 44.8416 1.6129 45.2932 1.6129C45.7448 1.6129 46.1749 1.6129 46.5835 1.6129C47.0029 1.60215 47.3954 1.59677 47.761 1.59677C48.1266 1.59677 48.476 1.5914 48.8093 1.58065C48.6481 2.09677 48.5137 2.61828 48.4061 3.14516C48.2986 3.66129 48.2072 4.22043 48.1319 4.82258H47.4868C47.476 4.15591 47.4115 3.63441 47.2932 3.25806C47.1857 2.88172 46.9921 2.61828 46.7126 2.46774C46.4438 2.3172 46.0674 2.24194 45.5835 2.24194H43.39L40.9384 11C40.7771 11.5591 40.761 11.9247 40.89 12.0968C41.019 12.2581 41.3739 12.3387 41.9545 12.3387H42.3093C43.062 12.3387 43.7018 12.2419 44.2287 12.0484C44.7556 11.8441 45.2287 11.5054 45.6481 11.0323C46.0782 10.5591 46.5137 9.9086 46.9545 9.08065H47.5997C47.2878 9.86559 47.0298 10.5699 46.8255 11.1935C46.6212 11.8172 46.4438 12.4194 46.2932 13C45.9706 12.9892 45.6481 12.9839 45.3255 12.9839C45.0137 12.9731 44.6911 12.9677 44.3577 12.9677C44.0352 12.957 43.6964 12.9516 43.3416 12.9516C42.9975 12.9516 42.6373 12.9516 42.261 12.9516C41.0674 12.9516 40.0137 12.957 39.0997 12.9677C38.1964 12.9677 37.4438 12.9785 36.8416 13ZM41.3739 7.56452L41.5513 6.95161H44.8255L44.6642 7.56452H41.3739ZM44.39 9.54839C44.4545 8.7957 44.3846 8.27957 44.1803 8C43.976 7.70968 43.5782 7.56452 42.9868 7.56452L43.1642 6.95161C43.5728 6.95161 43.9115 6.89247 44.1803 6.77419C44.4599 6.65591 44.7072 6.45161 44.9223 6.16129C45.1373 5.87097 45.3577 5.47312 45.5835 4.96774H46.2287C46.1749 5.11828 46.1104 5.3172 46.0352 5.56452C45.9599 5.81183 45.8792 6.08602 45.7932 6.3871C45.7072 6.67742 45.6266 6.96774 45.5513 7.25806C45.4975 7.44086 45.4491 7.61828 45.4061 7.79032C45.3739 7.96237 45.3362 8.13978 45.2932 8.32258C45.2502 8.50538 45.2072 8.69892 45.1642 8.90323C45.1212 9.10753 45.0782 9.32258 45.0352 9.54839H44.39ZM48.619 13L48.7964 12.371C49.334 12.3495 49.748 12.2957 50.0383 12.2097C50.3394 12.1129 50.5706 11.9516 50.7319 11.7258C50.9039 11.5 51.0437 11.1828 51.1512 10.7742L53.1512 3.62903C53.2587 3.23118 53.291 2.94086 53.248 2.75806C53.2157 2.56452 53.0706 2.43011 52.8125 2.35484C52.5652 2.26882 52.1727 2.22043 51.6351 2.20968L51.8125 1.58065C52.0383 1.5914 52.3394 1.60215 52.7157 1.6129C53.1028 1.62366 53.5491 1.62903 54.0544 1.62903C54.4415 1.62903 54.791 1.62366 55.1028 1.6129C55.4147 1.60215 55.6727 1.5914 55.877 1.58065L56.6673 11.3226L56.1673 11.371L62.1028 1.58065C62.4254 1.60215 62.7157 1.61828 62.9738 1.62903C63.2426 1.62903 63.5276 1.62903 63.8286 1.62903C64.377 1.62903 64.8716 1.62366 65.3125 1.6129C65.7641 1.60215 66.119 1.5914 66.377 1.58065L66.1996 2.20968C65.6405 2.23118 65.2157 2.27957 64.9254 2.35484C64.6351 2.41936 64.4146 2.54839 64.2641 2.74194C64.1243 2.93548 64.0007 3.23118 63.8931 3.62903L61.8448 10.9516C61.7372 11.3387 61.6996 11.629 61.7319 11.8226C61.7749 12.0161 61.92 12.1505 62.1673 12.2258C62.4254 12.3011 62.8233 12.3495 63.3609 12.371L63.1835 13C62.9147 12.9785 62.5544 12.9677 62.1028 12.9677C61.6512 12.957 61.1351 12.9516 60.5544 12.9516C59.963 12.9516 59.4469 12.957 59.006 12.9677C58.5652 12.9677 58.2211 12.9785 57.9738 13L58.1512 12.371C58.6458 12.3495 59.0222 12.3011 59.2802 12.2258C59.5383 12.1505 59.7319 12.0161 59.8609 11.8226C59.9899 11.6183 60.1082 11.328 60.2157 10.9516L62.619 2.37097H62.3448L55.8286 13.0806H55.2319L54.3609 2.6129H54.0867L51.7964 10.7903C51.6888 11.1989 51.6512 11.5161 51.6835 11.7419C51.7265 11.957 51.8663 12.1129 52.1028 12.2097C52.3501 12.2957 52.7211 12.3495 53.2157 12.371L53.0383 13C52.8233 12.9892 52.5329 12.9785 52.1673 12.9677C51.8017 12.957 51.3931 12.9516 50.9415 12.9516C50.4577 12.9516 50.0114 12.957 49.6028 12.9677C49.205 12.9785 48.877 12.9892 48.619 13ZM64.2927 13L64.4701 12.371C64.8465 12.3495 65.1798 12.2796 65.4701 12.1613C65.7605 12.0323 66.04 11.8333 66.3088 11.5645C66.5884 11.2849 66.8787 10.9247 67.1798 10.4839L73.3734 1.46774H73.954L75.2121 11.0323C75.2658 11.3548 75.3465 11.6183 75.454 11.8226C75.5723 12.0161 75.7497 12.1559 75.9863 12.2419C76.2228 12.3172 76.5293 12.3602 76.9056 12.371L76.7282 13C76.4809 12.9785 76.1422 12.9677 75.7121 12.9677C75.282 12.957 74.7981 12.9516 74.2605 12.9516C73.626 12.9516 73.0777 12.957 72.6153 12.9677C72.1529 12.9677 71.7873 12.9785 71.5185 13L71.6959 12.371C72.2658 12.3602 72.6906 12.3172 72.9701 12.2419C73.2605 12.1667 73.4486 12.0323 73.5347 11.8387C73.6207 11.6452 73.6368 11.371 73.583 11.0161L72.583 3.37097L72.954 3.08065L68.2605 9.91935C67.8626 10.5 67.6207 10.9677 67.5347 11.3226C67.4486 11.6667 67.5293 11.9247 67.7766 12.0968C68.0239 12.2581 68.4486 12.3495 69.0508 12.371L68.8734 13C68.454 12.9785 68.0185 12.9677 67.5669 12.9677C67.1261 12.957 66.6906 12.9516 66.2605 12.9516C65.9379 12.9516 65.6207 12.957 65.3088 12.9677C64.9863 12.9677 64.6476 12.9785 64.2927 13ZM68.7605 8.85484L69.1798 8.24194H73.9701L74.0508 8.85484H68.7605ZM77.7986 13L77.9761 12.371C78.546 12.3495 78.9761 12.3011 79.2664 12.2258C79.5567 12.1505 79.7718 12.0215 79.9115 11.8387C80.0513 11.6452 80.1696 11.3602 80.2664 10.9839L82.347 3.59677C82.4546 3.20968 82.4868 2.92473 82.4438 2.74194C82.4115 2.54839 82.2718 2.41398 82.0244 2.33871C81.7771 2.26344 81.3793 2.22043 80.8309 2.20968L81.0083 1.58065C81.2986 1.5914 81.6535 1.60215 82.0728 1.6129C82.5029 1.6129 82.9707 1.6129 83.4761 1.6129C83.9169 1.6129 84.3148 1.6129 84.6696 1.6129C85.0244 1.60215 85.3255 1.59677 85.5728 1.59677C85.8309 1.58602 86.0191 1.58065 86.1373 1.58065C87.1804 1.58065 88.0029 1.81183 88.6051 2.27419C89.2072 2.73656 89.5083 3.36022 89.5083 4.14516C89.5083 4.83333 89.2879 5.44624 88.847 5.98387C88.4062 6.51075 87.7933 6.92473 87.0083 7.22581C86.2234 7.52688 85.3255 7.67742 84.3148 7.67742H82.6857L82.847 7.09677H84.218C84.9492 7.09677 85.5782 6.97849 86.1051 6.74194C86.632 6.50538 87.0406 6.17204 87.3309 5.74194C87.632 5.31183 87.7825 4.80645 87.7825 4.22581C87.7825 3.56989 87.5943 3.06989 87.218 2.72581C86.8524 2.38172 86.3094 2.20968 85.589 2.20968H84.3632L81.9115 10.9839C81.804 11.3602 81.7664 11.6452 81.7986 11.8387C81.8309 12.0323 81.9707 12.1667 82.218 12.2419C82.4761 12.3065 82.8793 12.3495 83.4277 12.371L83.2503 13C82.9277 12.9785 82.5298 12.9677 82.0567 12.9677C81.5836 12.957 81.0836 12.9516 80.5567 12.9516C80.0083 12.9516 79.4976 12.957 79.0244 12.9677C78.5513 12.9677 78.1427 12.9785 77.7986 13ZM87.5728 13.2258C87.1212 13.2258 86.761 13.1022 86.4922 12.8548C86.2341 12.5968 86.0675 12.2151 85.9922 11.7097L85.6696 9.74194C85.5836 9.19355 85.4761 8.77419 85.347 8.48387C85.2287 8.1828 85.0406 7.97312 84.7825 7.85484C84.5352 7.73656 84.175 7.67742 83.7019 7.67742L83.8632 7.40323C84.6373 7.40323 85.2556 7.48925 85.718 7.66129C86.1911 7.83333 86.5513 8.11828 86.7986 8.51613C87.046 8.91398 87.2234 9.46774 87.3309 10.1774L87.5083 11.2258C87.5621 11.5806 87.6427 11.8387 87.7503 12C87.8578 12.1505 88.0083 12.2258 88.2019 12.2258C88.4277 12.2258 88.6266 12.1505 88.7986 12C88.9707 11.8387 89.1427 11.5914 89.3148 11.2581L89.7664 10.3871H90.3954L89.7825 11.5645C89.6212 11.8763 89.433 12.1613 89.218 12.4194C89.0137 12.6667 88.7771 12.8602 88.5083 13C88.2395 13.1505 87.9277 13.2258 87.5728 13.2258ZM92.1408 13L92.302 12.371C92.8504 12.3387 93.2752 12.2849 93.5762 12.2097C93.8773 12.1237 94.1031 11.9785 94.2537 11.7742C94.4042 11.5699 94.5278 11.2796 94.6246 10.9032L94.8988 9.90323C95.1461 9.02151 95.2967 8.13979 95.3504 7.25806C95.4149 6.36559 95.3934 5.55376 95.2859 4.82258C95.1891 4.08065 95.0171 3.48925 94.7698 3.04839C94.5225 2.59677 94.216 2.37097 93.8504 2.37097C93.6569 2.37097 93.4741 2.44086 93.302 2.58065C93.13 2.72043 92.9472 2.97312 92.7537 3.33871L92.302 4.19355H91.6891L92.2859 3.01613C92.458 2.69355 92.6461 2.4086 92.8504 2.16129C93.0655 1.91398 93.3074 1.72043 93.5762 1.58065C93.8558 1.43011 94.173 1.35484 94.5278 1.35484C95.5171 1.35484 96.2106 1.99462 96.6085 3.27419C97.0063 4.54301 97.0601 6.32796 96.7698 8.62903L96.4472 8.75806C96.7913 7.59677 97.1569 6.55914 97.544 5.64516C97.9418 4.73118 98.3504 3.95699 98.7698 3.32258C99.1891 2.67742 99.6085 2.18817 100.028 1.85484C100.458 1.52151 100.883 1.35484 101.302 1.35484C101.582 1.35484 101.802 1.42473 101.963 1.56452C102.125 1.7043 102.205 1.89247 102.205 2.12903C102.205 2.4086 102.119 2.61828 101.947 2.75806C101.775 2.8871 101.544 2.99462 101.254 3.08065C100.963 3.16667 100.641 3.27957 100.286 3.41936C99.9311 3.54839 99.5816 3.75806 99.2375 4.04839C98.8934 4.32796 98.5709 4.74194 98.2698 5.29032C98.1085 5.60215 97.9311 5.97849 97.7375 6.41936C97.5547 6.84946 97.3773 7.2957 97.2053 7.75806C97.0332 8.20968 96.8934 8.61828 96.7859 8.98387L96.2537 10.9032C96.1461 11.3011 96.1139 11.6022 96.1569 11.8065C96.1999 12.0108 96.3558 12.1559 96.6246 12.2419C96.8934 12.3172 97.3182 12.3602 97.8988 12.371L97.7375 13C97.4472 12.9785 97.0655 12.9677 96.5924 12.9677C96.13 12.957 95.5762 12.9516 94.9311 12.9516C94.2752 12.9516 93.7053 12.957 93.2214 12.9677C92.7483 12.9677 92.3881 12.9785 92.1408 13ZM111.188 13.2258C110.091 13.2258 109.145 13.0538 108.349 12.7097C107.554 12.3548 106.935 11.8495 106.495 11.1935C106.064 10.5376 105.849 9.76882 105.849 8.8871C105.849 8.05914 106.027 7.31183 106.382 6.64516C106.737 5.97849 107.215 5.45161 107.817 5.06452C108.419 4.67742 109.086 4.48387 109.817 4.48387C110.409 4.48387 110.876 4.60753 111.22 4.85484C111.564 5.10215 111.737 5.44086 111.737 5.87097C111.737 6.21505 111.597 6.57527 111.317 6.95161C111.038 7.3172 110.591 7.73656 109.978 8.20968L109.769 8.16129C110.5 7.78495 111.161 7.4086 111.753 7.03226C112.344 6.64516 112.849 6.27419 113.269 5.91936C113.688 5.55376 114.011 5.21505 114.237 4.90323C114.462 4.5914 114.575 4.31183 114.575 4.06452C114.575 3.83871 114.511 3.63978 114.382 3.46774C114.253 3.28495 114.124 3.10753 113.995 2.93548C113.876 2.75269 113.817 2.55376 113.817 2.33871C113.817 2.0914 113.903 1.89247 114.075 1.74194C114.247 1.5914 114.468 1.51613 114.737 1.51613C115.091 1.51613 115.376 1.63979 115.591 1.8871C115.817 2.13441 115.93 2.45699 115.93 2.85484C115.93 3.33871 115.753 3.85484 115.398 4.40323C115.054 4.95161 114.559 5.51075 113.914 6.08065C113.269 6.63978 112.505 7.18817 111.624 7.72581C110.753 8.26344 109.79 8.75806 108.737 9.20968L108.495 8.62903C109.118 8.36022 109.602 8 109.946 7.54839C110.301 7.09677 110.478 6.60753 110.478 6.08065C110.478 5.74731 110.409 5.5 110.269 5.33871C110.129 5.16667 109.919 5.08065 109.64 5.08065C109.242 5.08065 108.871 5.24194 108.527 5.56452C108.183 5.8871 107.909 6.31183 107.704 6.83871C107.5 7.36559 107.398 7.94086 107.398 8.56452C107.398 9.7043 107.785 10.6075 108.559 11.2742C109.344 11.9301 110.414 12.2581 111.769 12.2581C113.22 12.2581 114.441 11.8602 115.43 11.0645C116.43 10.2688 117.199 9.08065 117.737 7.5L118.317 7.6129C117.704 9.47312 116.801 10.8763 115.607 11.8226C114.414 12.7581 112.941 13.2258 111.188 13.2258ZM114.253 10.4677C113.941 10.4677 113.688 10.3495 113.495 10.1129C113.312 9.87634 113.22 9.55376 113.22 9.14516C113.22 8.74731 113.301 8.3871 113.462 8.06452C113.634 7.73118 113.871 7.44086 114.172 7.19355C114.484 6.94624 114.844 6.75806 115.253 6.62903C115.672 6.48925 116.129 6.41936 116.624 6.41936C117.043 6.41936 117.441 6.47312 117.817 6.58065C118.194 6.67742 118.548 6.7957 118.882 6.93548C119.215 7.07527 119.521 7.19892 119.801 7.30645C120.081 7.41398 120.339 7.46774 120.575 7.46774C120.844 7.46774 121.048 7.40323 121.188 7.27419C121.328 7.13441 121.435 6.96774 121.511 6.77419C121.597 6.58065 121.672 6.3871 121.737 6.19355C121.812 6 121.909 5.83871 122.027 5.70968C122.145 5.56989 122.328 5.5 122.575 5.5C122.823 5.5 123.016 5.58065 123.156 5.74194C123.306 5.89247 123.382 6.10753 123.382 6.3871C123.382 6.89247 123.134 7.30108 122.64 7.6129C122.156 7.91398 121.505 8.06452 120.688 8.06452C120.323 8.06452 119.968 8.03763 119.624 7.98387C119.28 7.93011 118.925 7.87097 118.559 7.80645C118.204 7.74194 117.828 7.6828 117.43 7.62903C117.032 7.57527 116.607 7.54839 116.156 7.54839C115.564 7.54839 115.113 7.60215 114.801 7.70968C114.489 7.8172 114.333 7.97312 114.333 8.17742C114.333 8.2957 114.371 8.41398 114.446 8.53226C114.532 8.63978 114.629 8.75269 114.737 8.87097C114.844 8.98925 114.935 9.11828 115.011 9.25806C115.097 9.3871 115.14 9.53226 115.14 9.69355C115.14 9.9086 115.059 10.0914 114.898 10.2419C114.737 10.3925 114.521 10.4677 114.253 10.4677ZM129.88 13L130.058 12.371C130.714 12.3495 131.208 12.3065 131.542 12.2419C131.875 12.1667 132.122 12.0323 132.284 11.8387C132.445 11.6452 132.579 11.3602 132.687 10.9839L135.154 2.12903L136.687 2.48387L134.316 10.9839C134.208 11.3602 134.181 11.6452 134.235 11.8387C134.3 12.0323 134.499 12.1667 134.832 12.2419C135.165 12.3065 135.692 12.3495 136.413 12.371L136.235 13C135.827 12.9785 135.332 12.9677 134.751 12.9677C134.181 12.957 133.579 12.9516 132.945 12.9516C132.396 12.9516 131.848 12.957 131.3 12.9677C130.762 12.9677 130.289 12.9785 129.88 13ZM130.848 5.72581C130.536 5.72581 130.284 5.60753 130.09 5.37097C129.907 5.12366 129.816 4.77419 129.816 4.32258C129.816 3.74194 129.966 3.22581 130.267 2.77419C130.568 2.32258 130.988 1.97312 131.525 1.72581C132.063 1.47849 132.687 1.35484 133.396 1.35484C133.88 1.35484 134.375 1.41398 134.88 1.53226C135.386 1.63979 135.875 1.76882 136.348 1.91935C136.832 2.06989 137.273 2.2043 137.671 2.32258C138.079 2.44086 138.413 2.5 138.671 2.5C138.961 2.5 139.176 2.43548 139.316 2.30645C139.466 2.16667 139.574 2 139.638 1.80645C139.714 1.6129 139.784 1.41936 139.848 1.22581C139.913 1.03226 140.004 0.870968 140.122 0.741935C140.241 0.612903 140.423 0.548387 140.671 0.548387C140.929 0.548387 141.128 0.629032 141.267 0.790322C141.418 0.940861 141.493 1.15054 141.493 1.41936C141.493 1.93548 141.246 2.34409 140.751 2.64516C140.257 2.94624 139.579 3.09677 138.719 3.09677C138.321 3.09677 137.88 3.06452 137.396 3C136.913 2.93548 136.407 2.86022 135.88 2.77419C135.364 2.67742 134.848 2.59677 134.332 2.53226C133.827 2.45699 133.348 2.41936 132.896 2.41936C132.262 2.41936 131.773 2.5 131.429 2.66129C131.085 2.81183 130.913 3.02688 130.913 3.30645C130.913 3.45699 130.95 3.59677 131.025 3.72581C131.111 3.84409 131.208 3.96774 131.316 4.09677C131.423 4.22581 131.515 4.36022 131.59 4.5C131.665 4.63979 131.703 4.78495 131.703 4.93548C131.703 5.17204 131.622 5.36559 131.461 5.51613C131.31 5.65591 131.106 5.72581 130.848 5.72581ZM147.24 13L147.417 12.371C147.944 12.3495 148.337 12.2957 148.595 12.2097C148.864 12.1237 149.052 11.9892 149.159 11.8065C149.278 11.6129 149.385 11.3387 149.482 10.9839L151.546 3.59677C151.654 3.20968 151.692 2.92473 151.659 2.74194C151.638 2.54839 151.514 2.41398 151.288 2.33871C151.073 2.26344 150.729 2.22043 150.256 2.20968L150.433 1.58065C150.692 1.5914 151.03 1.60215 151.45 1.6129C151.88 1.62366 152.358 1.62903 152.885 1.62903C153.455 1.62903 153.976 1.62366 154.45 1.6129C154.933 1.60215 155.331 1.5914 155.643 1.58065L155.466 2.20968C154.907 2.23118 154.476 2.27957 154.175 2.35484C153.885 2.43011 153.67 2.55914 153.53 2.74194C153.401 2.92473 153.283 3.20968 153.175 3.59677L151.111 10.9839C151.003 11.3602 150.966 11.6452 150.998 11.8387C151.041 12.0323 151.186 12.1667 151.433 12.2419C151.692 12.3065 152.089 12.3495 152.627 12.371L152.45 13C152.159 12.9785 151.778 12.9677 151.304 12.9677C150.842 12.957 150.331 12.9516 149.772 12.9516C149.235 12.9516 148.745 12.957 148.304 12.9677C147.874 12.9677 147.519 12.9785 147.24 13ZM139.869 13L140.046 12.371C140.616 12.3495 141.046 12.3011 141.337 12.2258C141.627 12.1505 141.842 12.0215 141.982 11.8387C142.122 11.6452 142.24 11.3602 142.337 10.9839L144.401 3.59677C144.509 3.20968 144.546 2.92473 144.514 2.74194C144.482 2.55914 144.337 2.43011 144.079 2.35484C143.831 2.26882 143.433 2.22043 142.885 2.20968L143.062 1.58065C143.353 1.5914 143.729 1.60215 144.192 1.6129C144.654 1.62366 145.17 1.62903 145.74 1.62903C146.267 1.62903 146.751 1.62366 147.192 1.6129C147.632 1.60215 147.993 1.5914 148.272 1.58065L148.095 2.20968C147.568 2.23118 147.175 2.28495 146.917 2.37097C146.659 2.44624 146.471 2.58065 146.353 2.77419C146.245 2.95699 146.138 3.23118 146.03 3.59677L143.982 10.9839C143.874 11.3602 143.831 11.6452 143.853 11.8387C143.885 12.0323 144.009 12.1667 144.224 12.2419C144.45 12.3065 144.794 12.3495 145.256 12.371L145.079 13C144.821 12.9785 144.476 12.9677 144.046 12.9677C143.616 12.957 143.143 12.9516 142.627 12.9516C142.046 12.9516 141.514 12.957 141.03 12.9677C140.557 12.9677 140.17 12.9785 139.869 13ZM144.53 7.56452L144.708 6.95161H150.917L150.724 7.56452H144.53ZM156.457 13L156.618 12.371C157.167 12.3387 157.592 12.2849 157.893 12.2097C158.194 12.1237 158.42 11.9785 158.57 11.7742C158.721 11.5699 158.844 11.2796 158.941 10.9032L159.215 9.90323C159.463 9.02151 159.613 8.13979 159.667 7.25806C159.731 6.36559 159.71 5.55376 159.602 4.82258C159.506 4.08065 159.334 3.48925 159.086 3.04839C158.839 2.59677 158.532 2.37097 158.167 2.37097C157.973 2.37097 157.79 2.44086 157.618 2.58065C157.446 2.72043 157.264 2.97312 157.07 3.33871L156.618 4.19355H156.006L156.602 3.01613C156.774 2.69355 156.963 2.4086 157.167 2.16129C157.382 1.91398 157.624 1.72043 157.893 1.58065C158.172 1.43011 158.489 1.35484 158.844 1.35484C159.834 1.35484 160.527 1.99462 160.925 3.27419C161.323 4.54301 161.377 6.32796 161.086 8.62903L160.764 8.75806C161.108 7.59677 161.473 6.55914 161.86 5.64516C162.258 4.73118 162.667 3.95699 163.086 3.32258C163.506 2.67742 163.925 2.18817 164.344 1.85484C164.774 1.52151 165.199 1.35484 165.618 1.35484C165.898 1.35484 166.118 1.42473 166.28 1.56452C166.441 1.7043 166.522 1.89247 166.522 2.12903C166.522 2.4086 166.436 2.61828 166.264 2.75806C166.092 2.8871 165.86 2.99462 165.57 3.08065C165.28 3.16667 164.957 3.27957 164.602 3.41936C164.247 3.54839 163.898 3.75806 163.554 4.04839C163.21 4.32796 162.887 4.74194 162.586 5.29032C162.425 5.60215 162.247 5.97849 162.054 6.41936C161.871 6.84946 161.694 7.2957 161.522 7.75806C161.35 8.20968 161.21 8.61828 161.102 8.98387L160.57 10.9032C160.463 11.3011 160.43 11.6022 160.473 11.8065C160.516 12.0108 160.672 12.1559 160.941 12.2419C161.21 12.3172 161.635 12.3602 162.215 12.371L162.054 13C161.764 12.9785 161.382 12.9677 160.909 12.9677C160.446 12.957 159.893 12.9516 159.247 12.9516C158.592 12.9516 158.022 12.957 157.538 12.9677C157.065 12.9677 156.704 12.9785 156.457 13ZM165.064 13L165.242 12.371C165.779 12.3495 166.193 12.2957 166.484 12.2097C166.785 12.1129 167.016 11.9516 167.177 11.7258C167.349 11.5 167.489 11.1828 167.597 10.7742L169.597 3.62903C169.704 3.23118 169.736 2.94086 169.693 2.75806C169.661 2.56452 169.516 2.43011 169.258 2.35484C169.011 2.26882 168.618 2.22043 168.08 2.20968L168.258 1.58065C168.484 1.5914 168.785 1.60215 169.161 1.6129C169.548 1.62366 169.994 1.62903 170.5 1.62903C170.887 1.62903 171.236 1.62366 171.548 1.6129C171.86 1.60215 172.118 1.5914 172.322 1.58065L173.113 11.3226L172.613 11.371L178.548 1.58065C178.871 1.60215 179.161 1.61828 179.419 1.62903C179.688 1.62903 179.973 1.62903 180.274 1.62903C180.822 1.62903 181.317 1.62366 181.758 1.6129C182.209 1.60215 182.564 1.5914 182.822 1.58065L182.645 2.20968C182.086 2.23118 181.661 2.27957 181.371 2.35484C181.08 2.41936 180.86 2.54839 180.709 2.74194C180.57 2.93548 180.446 3.23118 180.338 3.62903L178.29 10.9516C178.183 11.3387 178.145 11.629 178.177 11.8226C178.22 12.0161 178.365 12.1505 178.613 12.2258C178.871 12.3011 179.269 12.3495 179.806 12.371L179.629 13C179.36 12.9785 179 12.9677 178.548 12.9677C178.097 12.957 177.58 12.9516 177 12.9516C176.408 12.9516 175.892 12.957 175.451 12.9677C175.011 12.9677 174.666 12.9785 174.419 13L174.597 12.371C175.091 12.3495 175.467 12.3011 175.726 12.2258C175.984 12.1505 176.177 12.0161 176.306 11.8226C176.435 11.6183 176.554 11.328 176.661 10.9516L179.064 2.37097H178.79L172.274 13.0806H171.677L170.806 2.6129H170.532L168.242 10.7903C168.134 11.1989 168.097 11.5161 168.129 11.7419C168.172 11.957 168.312 12.1129 168.548 12.2097C168.795 12.2957 169.166 12.3495 169.661 12.371L169.484 13C169.269 12.9892 168.978 12.9785 168.613 12.9677C168.247 12.957 167.838 12.9516 167.387 12.9516C166.903 12.9516 166.457 12.957 166.048 12.9677C165.65 12.9785 165.322 12.9892 165.064 13ZM181.646 13L181.824 12.371C182.394 12.3495 182.818 12.3065 183.098 12.2419C183.388 12.1667 183.603 12.0323 183.743 11.8387C183.883 11.6452 184.007 11.3602 184.114 10.9839L186.179 3.59677C186.286 3.20968 186.318 2.92473 186.275 2.74194C186.243 2.54839 186.098 2.41398 185.84 2.33871C185.593 2.26344 185.2 2.22043 184.662 2.20968L184.84 1.58065C185.238 1.5914 185.754 1.60215 186.388 1.6129C187.033 1.6129 187.797 1.6129 188.679 1.6129C189.173 1.6129 189.646 1.6129 190.098 1.6129C190.55 1.6129 190.98 1.6129 191.388 1.6129C191.808 1.60215 192.2 1.59677 192.566 1.59677C192.931 1.59677 193.281 1.5914 193.614 1.58065C193.453 2.09677 193.318 2.61828 193.211 3.14516C193.103 3.66129 193.012 4.22043 192.937 4.82258H192.291C192.281 4.15591 192.216 3.63441 192.098 3.25806C191.99 2.88172 191.797 2.61828 191.517 2.46774C191.248 2.3172 190.872 2.24194 190.388 2.24194H188.195L185.743 11C185.582 11.5591 185.566 11.9247 185.695 12.0968C185.824 12.2581 186.179 12.3387 186.759 12.3387H187.114C187.867 12.3387 188.507 12.2419 189.033 12.0484C189.56 11.8441 190.033 11.5054 190.453 11.0323C190.883 10.5591 191.318 9.9086 191.759 9.08065H192.404C192.093 9.86559 191.834 10.5699 191.63 11.1935C191.426 11.8172 191.248 12.4194 191.098 13C190.775 12.9892 190.453 12.9839 190.13 12.9839C189.818 12.9731 189.496 12.9677 189.162 12.9677C188.84 12.957 188.501 12.9516 188.146 12.9516C187.802 12.9516 187.442 12.9516 187.066 12.9516C185.872 12.9516 184.818 12.957 183.904 12.9677C183.001 12.9677 182.248 12.9785 181.646 13ZM186.179 7.56452L186.356 6.95161H189.63L189.469 7.56452H186.179ZM189.195 9.54839C189.259 8.7957 189.189 8.27957 188.985 8C188.781 7.70968 188.383 7.56452 187.791 7.56452L187.969 6.95161C188.377 6.95161 188.716 6.89247 188.985 6.77419C189.265 6.65591 189.512 6.45161 189.727 6.16129C189.942 5.87097 190.162 5.47312 190.388 4.96774H191.033C190.98 5.11828 190.915 5.3172 190.84 5.56452C190.765 5.81183 190.684 6.08602 190.598 6.3871C190.512 6.67742 190.431 6.96774 190.356 7.25806C190.302 7.44086 190.254 7.61828 190.211 7.79032C190.179 7.96237 190.141 8.13978 190.098 8.32258C190.055 8.50538 190.012 8.69892 189.969 8.90323C189.926 9.10753 189.883 9.32258 189.84 9.54839H189.195Z" fill="#3988A4"/>
</svg>
